<svg width="21" height="21" viewBox="0 0 21 21" fill="none" xmlns="http://www.w3.org/2000/svg">
<path d="M13.1246 15.75C13.1246 16.4462 12.848 17.1139 12.3558 17.6062C11.8635 18.0984 11.1958 18.375 10.4996 18.375C9.8034 18.375 9.13572 18.0984 8.64344 17.6062C8.15116 17.1139 7.8746 16.4462 7.8746 15.75M5.28722 15.75C4.98681 15.7499 4.69133 15.6736 4.42843 15.5282C4.16553 15.3828 3.9438 15.1731 3.78397 14.9187C3.62172 14.664 3.52541 14.3729 3.50372 14.0717C3.48203 13.7705 3.53564 13.4686 3.65972 13.1933L4.1366 12.1328C4.71166 10.8514 5.0536 9.47769 5.14635 8.07625L5.17347 7.66237C5.26248 6.30067 5.86141 5.02253 6.85085 4.08275C7.8356 3.14869 9.14057 2.62708 10.4978 2.625C11.8551 2.62708 13.1601 3.14869 14.1448 4.08275C15.1341 5.02231 15.733 6.3001 15.8222 7.6615L15.8493 8.07625C15.9421 9.47769 16.284 10.8514 16.8591 12.1328L17.3368 13.1924C17.4621 13.4679 17.5166 13.7703 17.4955 14.0722C17.4744 14.3741 17.3784 14.6659 17.2161 14.9214C17.0556 15.1759 16.833 15.3854 16.5693 15.5304C16.3056 15.6753 16.0094 15.7509 15.7085 15.75H5.28722Z" stroke="black" stroke-miterlimit="10" stroke-linecap="round" stroke-linejoin="round"/>
</svg>
